# xmcd
#
# Track frame offsets: 
#        150
#        11482
#        26777
#        40307
#        53825
#        70905
#        81182
#        90232
#
# Disc length: 1406 seconds
#
# Revision: 0
# Processed by: cddbd v1.5PL3 Copyright (c) Steve Scherf et al.
# Submitted via: ExactAudioCopy v0.90b4
#
DISCID=5b057c08
DTITLE=Billy Sheets - Please Tell My Why
DYEAR=1997
DGENRE=Blues
TTITLE0=Love Don't Love Nobody
TTITLE1=Woke Up This Morning
TTITLE2=Dead Love
TTITLE3=Don't Let My Baby Ride
TTITLE4=Sit Right Here 
TTITLE5=I'm Trying
TTITLE6=Please Tell Me Why
TTITLE7=Drivin' Wheel
EXTD=
EXTT0=
EXTT1=
EXTT2=
EXTT3=
EXTT4=
EXTT5=
EXTT6=
EXTT7=
PLAYORDER=
